<svg xmlns="http://www.w3.org/2000/svg" viewBox="0 0 48 49" width="48" height="49">
	<style>
		tspan { white-space:pre }
		.shp0 { fill: #1f1f21 } 
	</style>
	<path id="Icon" class="shp0" d="M46.1 29.43C47.12 29.22 47.95 28.2 47.95 27.17L47.95 21.83C47.95 20.79 47.78 19.91 47.57 19.87C47.36 19.82 46.35 19.62 45.33 19.41L43.72 19.09C42.7 18.88 41.72 18.29 41.53 17.78C41.33 17.26 41.2 15.26 41.77 14.39L43.12 12.36C43.69 11.49 43.56 10.18 42.82 9.45L39.05 5.68C38.32 4.94 37.01 4.81 36.14 5.38L34.07 6.75C33.21 7.33 32.1 7.61 31.62 7.39C31.13 7.17 29.63 5.85 29.43 4.83L28.93 2.39C28.72 1.38 27.71 0.54 26.67 0.54L21.33 0.54C20.29 0.54 19.28 1.38 19.07 2.39L18.57 4.86C18.36 5.88 17.78 6.87 17.28 7.05C16.79 7.24 14.82 7.35 13.95 6.78L11.86 5.39C10.99 4.81 9.68 4.94 8.95 5.67L5.18 9.45C4.44 10.18 4.31 11.49 4.89 12.36L6.28 14.45C6.86 15.32 7.14 16.42 6.92 16.9C6.7 17.38 5.38 18.87 4.36 19.08L1.9 19.57C0.88 19.78 0.05 20.79 0.05 21.83L0.05 27.17C0.05 28.21 0.88 29.22 1.9 29.43L4.33 29.92C5.35 30.12 6.33 30.71 6.52 31.22C6.71 31.72 6.83 33.72 6.26 34.58L4.89 36.64C4.31 37.51 4.44 38.82 5.18 39.55L8.95 43.32C9.68 44.06 10.99 44.19 11.86 43.61L13.88 42.27C14.75 41.69 15.86 41.41 16.36 41.64C16.86 41.87 18.39 43.21 18.59 44.23L19.07 46.6C19.28 47.62 20.29 48.45 21.33 48.45L26.67 48.45C27.71 48.45 28.72 47.62 28.93 46.6L29.4 44.26C29.61 43.24 30.2 42.25 30.72 42.06C31.25 41.86 33.28 41.72 34.14 42.29L36.14 43.62C37.01 44.19 38.32 44.06 39.05 43.32L42.82 39.55C43.56 38.82 43.69 37.51 43.12 36.64L41.79 34.64C41.22 33.78 40.94 32.66 41.17 32.16C41.4 31.66 42.73 30.12 43.75 29.91L46.1 29.43ZM39.08 34.04C39.4 34.53 40.12 35.61 40.67 36.45C41.22 37.28 41.08 38.57 40.34 39.3L38.8 40.84C38.07 41.57 36.78 41.72 35.95 41.17C35.11 40.62 34.03 39.9 33.55 39.58C33.06 39.26 32.08 39.32 31.37 39.71C31.37 39.71 31.37 39.71 30.69 40C30.53 40.07 30.38 40.13 30.22 40.19C29.54 40.46 29.54 40.46 29.54 40.46C28.75 40.69 28.02 41.34 27.9 41.91C27.79 42.48 27.53 43.75 27.33 44.73C27.14 45.72 26.12 46.52 25.09 46.52L22.91 46.52C21.88 46.52 20.86 45.71 20.66 44.73C20.47 43.74 20.21 42.46 20.09 41.89C19.98 41.32 19.24 40.66 18.46 40.43C18.46 40.43 18.46 40.43 17.77 40.16C17.63 40.1 17.48 40.04 17.33 39.97C16.65 39.68 16.65 39.68 16.65 39.68C15.94 39.28 14.97 39.22 14.48 39.55C14 39.87 12.91 40.59 12.07 41.15C11.22 41.72 9.93 41.57 9.2 40.84L7.66 39.3C6.93 38.57 6.79 37.27 7.35 36.42C7.92 35.57 8.65 34.48 8.97 33.99C9.29 33.51 9.24 32.53 8.84 31.81C8.84 31.81 8.84 31.81 8.55 31.13C8.5 31 8.45 30.87 8.39 30.74C8.12 30.05 8.12 30.05 8.12 30.05C7.9 29.27 7.25 28.53 6.68 28.42C6.11 28.3 4.82 28.05 3.81 27.84C2.8 27.64 1.98 26.62 1.98 25.59L1.98 23.41C1.98 22.38 2.81 21.36 3.82 21.16C4.83 20.95 6.12 20.69 6.69 20.58C7.27 20.46 7.92 19.72 8.15 18.94C8.15 18.94 8.15 18.94 8.43 18.26C8.48 18.14 8.52 18.02 8.57 17.9C8.87 17.22 8.87 17.22 8.87 17.22C9.26 16.51 9.32 15.53 9 15.05C8.67 14.56 7.94 13.46 7.37 12.6C6.79 11.74 6.93 10.43 7.66 9.7L9.2 8.16C9.93 7.43 11.24 7.29 12.1 7.87C12.96 8.44 14.06 9.17 14.55 9.5C15.03 9.82 16.01 9.76 16.72 9.37C16.72 9.37 16.72 9.37 17.4 9.07C17.51 9.03 17.63 8.98 17.74 8.94C18.42 8.66 18.42 8.66 18.42 8.66C19.21 8.43 19.95 7.77 20.06 7.2C20.18 6.63 20.44 5.33 20.65 4.32C20.86 3.31 21.87 2.48 22.91 2.48L25.09 2.48C26.13 2.48 27.14 3.3 27.35 4.31C27.55 5.32 27.82 6.61 27.93 7.18C28.05 7.75 28.78 8.4 29.57 8.63C29.57 8.63 29.57 8.63 30.25 8.9C30.37 8.95 30.5 8.99 30.61 9.04C31.3 9.34 31.3 9.34 31.3 9.34C32.01 9.73 32.99 9.79 33.48 9.46C33.97 9.14 35.06 8.42 35.92 7.85C36.77 7.29 38.07 7.42 38.8 8.16L40.34 9.7C41.08 10.43 41.22 11.72 40.66 12.57C40.1 13.42 39.37 14.51 39.05 14.99C38.73 15.48 38.79 16.46 39.19 17.17C39.19 17.17 39.19 17.17 39.48 17.85C39.54 17.98 39.6 18.12 39.65 18.26C39.93 18.94 39.93 18.94 39.93 18.94C40.16 19.73 40.82 20.47 41.39 20.58C41.96 20.7 43.24 20.96 44.22 21.16C45.21 21.36 46.02 22.37 46.02 23.41L46.02 25.59C46.02 26.63 45.22 27.64 44.23 27.84C43.25 28.04 41.97 28.3 41.4 28.41C40.83 28.53 40.18 29.27 39.96 30.05C39.96 30.05 39.96 30.05 39.69 30.73C39.63 30.89 39.57 31.04 39.5 31.19C39.21 31.87 39.21 31.87 39.21 31.87C38.82 32.58 38.76 33.56 39.08 34.04ZM24.04 16.73C19.73 16.73 16.23 20.23 16.23 24.54C16.23 28.85 19.73 32.35 24.04 32.35C28.35 32.35 31.85 28.85 31.85 24.54C31.85 20.23 28.35 16.73 24.04 16.73ZM24.04 30.42C20.79 30.41 18.17 27.79 18.16 24.54C18.17 21.29 20.79 18.67 24.04 18.66C27.29 18.67 29.91 21.29 29.92 24.54C29.91 27.79 27.29 30.41 24.04 30.42Z" />
</svg>