<svg xmlns="http://www.w3.org/2000/svg" viewBox="0 0 43 42" width="43" height="42">
	<style>
		tspan { white-space:pre }
		.shp0 { fill: #1f2021 } 
	</style>
	<path id="Icon" class="shp0" d="M41.45 30.75L32.23 21.52L30.97 22.78L40.19 32.01C40.25 32.06 40.28 32.14 40.28 32.22C40.28 32.3 40.25 32.37 40.19 32.43L33.37 39.25C33.31 39.31 33.24 39.33 33.16 39.33C33.08 39.33 33.01 39.31 32.95 39.25L29.15 35.45L31.53 33.07L30.19 31.73L27.81 34.11L23.73 30.02L22.47 31.28L31.69 40.51C32.1 40.91 32.63 41.12 33.16 41.11L33.17 41.11C33.69 41.11 34.23 40.91 34.63 40.51L41.45 33.69C41.86 33.28 42.06 32.74 42.06 32.22C42.06 31.69 41.86 31.15 41.45 30.75ZM10.61 19.42L11.87 18.16L9.04 15.34L11.42 12.96L10.08 11.62L7.7 14L3.9 10.2C3.85 10.14 3.82 10.07 3.82 9.99C3.82 9.91 3.85 9.84 3.9 9.78L10.72 2.96C10.78 2.9 10.85 2.87 10.93 2.87C11.02 2.87 11.09 2.9 11.14 2.96L19.11 10.92L20.37 9.66L12.4 1.7C12 1.3 11.46 1.09 10.93 1.09C10.41 1.09 9.87 1.3 9.47 1.7L2.64 8.52C2.24 8.93 2.04 9.46 2.04 9.99C2.04 10.52 2.24 11.06 2.64 11.46L10.61 19.42ZM41.01 9.78C41.01 9.25 40.8 8.72 40.4 8.31L33.58 1.49C33.17 1.09 32.64 0.88 32.11 0.88C31.58 0.88 31.04 1.09 30.64 1.49L2.41 29.72L2.41 29.72C2.02 30.11 1.82 30.62 1.8 31.13C1.69 31.22 1.59 31.32 1.53 31.42C1.33 31.72 1.27 32.03 1.25 32.34L0.94 38.99L0.94 38.99C0.94 39.03 0.94 39.06 0.94 39.09C0.94 39.62 1.15 40.12 1.51 40.47C1.86 40.83 2.36 41.04 2.89 41.04L2.89 41.04C2.93 41.04 2.97 41.04 3.01 41.04L3.01 41.04L3.02 41.04L9.57 40.65C9.87 40.63 10.18 40.57 10.48 40.36C10.58 40.3 10.68 40.2 10.77 40.09C11.27 40.07 11.78 39.87 12.17 39.48L40.4 11.25C40.8 10.85 41.01 10.31 41.01 9.78ZM2.91 39.26L2.91 39.26C2.91 39.26 2.9 39.26 2.89 39.26C2.77 39.24 2.74 39.22 2.72 39.09L2.72 39.09L2.72 39.08L2.99 33.25L5.82 36.07L8.67 38.92L2.91 39.26ZM39.14 9.99L10.91 38.22C10.85 38.28 10.78 38.31 10.7 38.31C10.62 38.31 10.55 38.28 10.49 38.22L3.67 31.4C3.61 31.34 3.58 31.27 3.58 31.19C3.58 31.11 3.61 31.04 3.67 30.98L31.9 2.75C31.96 2.69 32.03 2.67 32.11 2.66C32.19 2.67 32.26 2.69 32.32 2.75L39.14 9.57C39.2 9.63 39.22 9.7 39.23 9.78C39.22 9.86 39.2 9.94 39.14 9.99Z" />
</svg>