<svg xmlns="http://www.w3.org/2000/svg" viewBox="0 0 51 43" width="51" height="43">
	<style>
		tspan { white-space:pre }
		.shp0 { fill: #1f2021 } 
	</style>
	<path id="Icon" class="shp0" d="M43.76 42.31L7.02 42.31C3.58 42.3 0.77 39.5 0.77 36.06L0.77 14.74C0.77 11.3 3.58 8.49 7.02 8.49L11.15 8.49L11.5 8.49L11.74 8.24L16.74 3.1C18.1 1.77 20.23 0.87 22.15 0.82L28.65 0.82C30.55 0.87 32.68 1.77 34.06 3.12L39.04 8.24L39.28 8.49L39.63 8.49L43.76 8.49C47.2 8.49 50.01 11.3 50.01 14.74L50.01 36.06C50.01 39.5 47.2 42.3 43.76 42.31L43.76 42.31ZM7.02 10.1C4.47 10.11 2.39 12.19 2.38 14.74L2.38 36.06C2.39 38.61 4.47 40.69 7.02 40.69L43.76 40.69C46.31 40.69 48.39 38.61 48.39 36.06L48.39 14.74C48.39 12.19 46.31 10.11 43.76 10.1L38.06 10.1L35.09 7.08L32.43 4.38C31.72 3.57 29.65 2.67 28.45 2.67L22.47 2.67C22.47 2.67 22.47 2.67 22.47 2.67C21.16 2.67 19.13 3.55 18.38 4.42L15.75 7.08L12.78 10.1L7.02 10.1L7.02 10.1L7.02 10.1ZM25.39 37.21C18.95 37.21 13.72 31.97 13.72 25.53C13.72 19.1 18.95 13.86 25.39 13.86C31.83 13.86 37.06 19.1 37.06 25.53C37.06 31.97 31.83 37.21 25.39 37.21L25.39 37.21ZM25.39 15.44C19.83 15.45 15.3 19.98 15.29 25.53C15.3 31.09 19.83 35.62 25.39 35.63C30.95 35.62 35.48 31.09 35.49 25.53C35.48 19.98 30.95 15.45 25.39 15.44L25.39 15.44L25.39 15.44L25.39 15.44Z" />
</svg>