<svg xmlns="http://www.w3.org/2000/svg" viewBox="0 0 48 41" width="48" height="41">
	<style>
		tspan { white-space:pre }
		.shp0 { fill: #1f2021 } 
	</style>
	<path id="Icon" class="shp0" d="M33 41L16 41L16 39L34 39L34 41L34 41L33 41ZM45 34L5 34C3.09 33.99 1.01 31.91 1 30L1 5C1.01 3.09 3.09 1.01 5 1L45 1C46.91 1.01 47.99 3.09 48 5L48 30C47.99 31.91 46.91 33.99 45 34L45 34L45 34ZM5 3C4.19 3 3 4.19 3 5L3 30C3 30.8 4.19 32 5 32L45 32C45.81 32 46.06 30.67 46.06 29.86L46.06 4.94C46.06 4.14 45.81 3 45 3L5 3L5 3L5 3Z" />
</svg>